<svg xmlns="http://www.w3.org/2000/svg" version="1.1" xmlns:xlink="http://www.w3.org/1999/xlink" xmlns:svgjs="http://svgjs.dev/svgjs" width="2000" height="1500" viewBox="0 0 2000 1500"><rect width="2000" height="1500" fill="#0c1d36"></rect><g transform="matrix(0.2976190476190476,0,0,0.2976190476190476,702.3628784078353,250.40486099237182)"><svg viewBox="0 0 147 247" data-background-color="#0c1d36" preserveAspectRatio="xMidYMid meet" height="3360" width="2000" xmlns="http://www.w3.org/2000/svg" xmlns:xlink="http://www.w3.org/1999/xlink"><g id="tight-bounds" transform="matrix(1,0,0,1,0.00461590889534591,-0.10000066511585715)"><svg viewBox="0 0 146.99089145262803 247.2" height="247.2" width="146.99089145262803"><g><svg viewBox="0 0 230.14605850308573 387.04510939235905" height="247.2" width="146.99089145262803"><g><svg viewBox="0 0 230.14605850308573 387.04510939235905" height="387.04510939235905" width="230.14605850308573"><g><svg viewBox="0 0 230.14605850308573 387.04510939235905" height="387.04510939235905" width="230.14605850308573"><g><svg viewBox="0 0 230.14605850308573 245.672304" height="245.672304" width="230.14605850308573"><path d="M229.607 52.692C228.525 27.191 225.442 20.102 225.442 20.102 215.974-6.164 204.159-0.502 193.545 3.272 174.806 3.425 156.142 9.035 137.445 12.044 98.202 12.503 58.624 4.955 19.576 23.57 15.908 29.282-3.805 24.692 0.652 55.956 1.821 68.961 6.084 83.395 5.954 95.329 6.538 97.42 7.35 92.626 7.696 95.635 8.908 103.744 10.888 99.919 12.511 104.713 10.249 117.515 11.872 128.174 13.42 139.343 10.693 142.25 7.198 140.873 5.629 150.513 5.467 157.5 4.591 156.174 3.628 155.868 2.925 155.664 1.507 156.429 1.745 158.622 2.557 166.119-0.927 170.454 1.258 177.798-0.246 185.755 2.297 192.64 1.951 201.259 1.907 202.993 2.146 204.472 2.524 204.88 4.201 207.073 1.756 211.357 2.016 215.998 19.219 247.721 37.883 225.791 55.508 240.377 60.085 230.177 56.644 243.998 58.473 241.856 59.901 239.357 60.94 249.71 62.552 243.845 62.801 242.162 62.422 238.184 63.309 238.949 63.774 239.357 64.185 239.255 64.25 236.909 64.348 233.39 63.493 235.583 63.266 233.747 65.722 224.465 65.116 246.548 67.421 245.63 67.312 242.927 66.642 239.051 68.016 239.561 69.379 235.685 69.422 232.472 70.634 241.193 70.677 243.08 70.894 244.406 71.24 245.324 75.027 235.838 78.792 248.69 82.763 244.406 85.197 239.714 87.534 246.956 90.001 245.171 90.867 243.743 91.743 241.193 92.576 245.477 102.779 246.395 113.653 242.57 123.326 245.63 149.174 239.918 176.796 247.976 204.051 240.428 210.478 237.521 217.154 233.39 223.418 230.075 223.418 230.075 228.493 220.997 228.493 180.196S229.575 144.495 229.737 112.007C229.899 79.519 230.657 78.193 229.575 52.692Z" opacity="1" fill="#f9cc0b" data-fill-palette-color="tertiary"></path><g transform="matrix(1,0,0,1,55.768319999999996,26.068561146666667)"><svg width="118.60941850308573" viewBox="3.930000066757202 -35 21.44999885559082 35" height="193.53518170666666" data-palette-color="#0c1d36"><path d="M9.38 0L3.93 0 3.93-35 25.38-35 25.38-29.9 9.38-29.9 9.38-20.83 21.73-20.83 21.73-15.73 9.38-15.73 9.38 0Z" opacity="1" transform="matrix(1,0,0,1,0,0)" fill="#0c1d36" class="undefined-text-0" data-fill-palette-color="quaternary" id="text-0"></path></svg></g></svg></g><g transform="matrix(1,0,0,1,54.87823170293056,291.361315556583)"><svg viewBox="0 0 120.3895950972246 95.683793835776" height="95.683793835776" width="120.3895950972246"><g transform="matrix(1,0,0,1,0,0)"><svg width="120.3895950972246" viewBox="2.5 -35 44.099998474121094 35.04999923706055" height="95.683793835776" data-palette-color="#f9cc0b"><path d="M12.55 0L2.5 0.05 2.55-0.65 5.15-1Q5.65-1.05 5.75-1.65L5.75-1.65 5.8-1.65 5.8-33.25 5.75-33.25Q5.65-33.9 5.15-33.95L5.15-33.95 2.55-34.2 2.5-34.95 12.55-35Q12.55-34.95 12.6-34.25L12.6-34.25 9.2-33.95 9.2-0.95 12.6-0.75Q12.6-0.7 12.55 0L12.55 0ZM36.8-34.95L46.55-35Q46.55-34.95 46.6-34.25L46.6-34.25 43.45-33.95 32.45 0 29.15 0 17.75-33.7Q17.6-33.9 17.35-33.95L17.35-33.95 14.75-34.2Q14.7-34.5 14.7-34.95L14.7-34.95 24.7-35Q24.7-34.95 24.75-34.25L24.75-34.25 21.05-33.9 32.1-0.95 41.8-32.7 41.85-33.15Q41.85-33.75 41.4-33.8L41.4-33.8 36.85-34.2Q36.8-34.5 36.8-34.95L36.8-34.95Z" opacity="1" transform="matrix(1,0,0,1,0,0)" fill="#f9cc0b" class="undefined-text-1" data-fill-palette-color="secondary" id="text-1"></path></svg></g></svg></g></svg></g></svg></g><g></g></svg></g><defs></defs></svg><rect width="146.99089145262803" height="247.2" fill="none" stroke="none" visibility="hidden"></rect></g></svg></g></svg>