<svg version="1.1" id="Layer_1" xmlns="http://www.w3.org/2000/svg" xmlns:xlink="http://www.w3.org/1999/xlink" x="0px" y="0px"
	 width="100%" viewBox="0 0 879 217" enable-background="new 0 0 879 217" xml:space="preserve">
<path fill="#FF5959" opacity="1.000000" stroke="none" 
	d="
M577.000000,218.000000 
	C384.710419,218.000000 192.920822,218.000000 1.065621,218.000000 
	C1.065621,145.726959 1.065621,73.453842 1.065621,1.090364 
	C294.000000,1.090364 587.000000,1.090364 879.965393,1.090364 
	C879.965393,73.412476 879.965393,145.706253 879.965393,218.000000 
	C779.120544,218.000000 678.310242,218.000000 577.000000,218.000000 
M161.160385,171.257706 
	C167.859009,171.104263 167.872131,171.104263 167.872742,164.224228 
	C167.876816,118.096375 167.876892,71.968529 167.872559,25.840679 
	C167.871933,19.237701 167.857651,19.219227 161.337875,19.218428 
	C115.376556,19.212801 69.415230,19.214327 23.453909,19.216393 
	C15.897239,19.216732 15.897239,19.223145 14.992875,26.945234 
	C12.870953,26.945234 10.749030,26.945234 8.447444,26.945234 
	C8.447444,77.867584 8.447444,128.239441 8.447444,178.586639 
	C59.148754,178.586639 109.505669,178.586639 159.878143,178.586639 
	C160.038376,175.859924 160.174835,173.537903 161.160385,171.257706 
M412.191681,134.603622 
	C411.743591,135.790100 411.295471,136.976562 410.589111,138.846863 
	C418.644501,138.846863 425.782806,138.904770 432.917480,138.770279 
	C433.766602,138.754272 434.595886,137.688278 435.434326,137.108994 
	C434.720245,136.204727 434.170166,134.801407 433.257507,134.501450 
	C431.432739,133.901779 429.409332,133.906570 427.363342,133.648590 
	C427.363342,123.982811 427.363342,114.594368 427.363342,105.248108 
	C439.607788,105.248108 451.499390,105.248108 463.514587,105.248108 
	C463.514587,114.894989 463.514587,124.149490 463.514587,133.604019 
	C461.306061,133.911667 459.296875,133.978195 457.443237,134.549408 
	C456.645325,134.795303 455.654602,136.118347 455.701599,136.894516 
	C455.743378,137.584274 457.085022,138.734894 457.875763,138.754395 
	C464.202972,138.910355 470.538025,138.930832 476.863861,138.751465 
	C477.752258,138.726257 478.603577,137.391891 479.472076,136.663544 
	C478.606628,135.867371 477.866302,134.734299 476.845917,134.355392 
	C475.381012,133.811417 473.712006,133.817139 471.857941,133.548813 
	C471.857941,114.842346 471.923370,96.533295 471.803467,78.225464 
	C471.779053,74.500656 471.888550,71.561638 476.835846,71.830765 
	C477.666992,71.875977 478.580566,70.405624 479.456085,69.635559 
	C478.575317,68.916161 477.710022,67.596077 476.811371,67.572975 
	C470.006561,67.398018 463.195190,67.477341 456.385895,67.477341 
	C456.065918,67.997269 455.745941,68.517189 455.425964,69.037117 
	C456.662811,70.026039 457.837433,71.109070 459.153107,71.978783 
	C460.623596,72.950844 463.520844,73.672882 463.561249,74.601059 
	C463.913727,82.697266 463.764801,90.815300 463.764801,99.084656 
	C451.224274,99.084656 439.337555,99.084656 427.286682,99.084656 
	C427.286682,90.126801 427.286682,81.546608 427.286682,73.046974 
	C434.842133,70.862526 434.842133,70.862526 434.565674,67.490761 
	C427.629669,67.490761 420.650787,67.430153 413.675934,67.570679 
	C412.843597,67.587448 412.033356,68.699814 411.212891,69.304359 
	C411.982239,70.169060 412.597198,71.449982 413.555450,71.805519 
	C415.184509,72.409897 417.029694,72.431656 418.680298,72.682487 
	C418.680298,93.326714 418.680298,113.423584 418.680298,133.680389 
	C416.609070,133.940826 414.816132,134.166275 412.191681,134.603622 
M749.690125,71.928528 
	C753.468140,71.644196 753.873169,73.874733 753.855408,76.969887 
	C753.755310,94.452065 753.815613,111.935127 753.790100,129.417831 
	C753.788025,130.841690 753.552307,132.265228 753.421997,133.724411 
	C751.470581,133.932800 749.884521,133.817703 748.539795,134.332718 
	C747.392517,134.772064 746.522583,135.935577 745.529968,136.778748 
	C746.598267,137.472168 747.650024,138.733978 748.737610,138.765671 
	C755.225708,138.954651 761.725647,138.971405 768.212402,138.761017 
	C769.432800,138.721436 770.611450,137.396042 771.809387,136.663986 
	C770.755981,135.879196 769.804749,134.705902 768.626465,134.396072 
	C766.604492,133.864426 764.440796,133.872055 762.303345,133.649826 
	C762.303345,124.597801 762.303345,115.911240 762.303345,107.018890 
	C764.565552,107.018890 766.448547,107.318985 768.199890,106.965919 
	C775.057068,105.583565 778.738953,109.317963 781.506042,114.791245 
	C784.056580,119.836273 786.637817,124.866440 789.265930,129.871445 
	C794.376770,139.604843 795.127441,139.958527 807.436401,138.324127 
	C806.767822,136.840881 806.414246,134.653595 805.590515,134.459290 
	C800.662292,133.296875 799.024170,129.177841 796.790466,125.531570 
	C792.732422,118.907326 788.660645,112.291588 784.509521,105.533791 
	C784.568787,105.493622 784.924438,105.203011 785.321899,104.990494 
	C795.180054,99.718887 799.529541,90.114487 796.872253,79.465256 
	C794.899231,71.558319 787.645203,66.987732 776.434143,66.970093 
	C767.449707,66.955956 758.463196,67.234894 749.482117,67.525551 
	C748.387756,67.560974 747.321777,68.477013 746.242676,68.984940 
	C747.122192,69.931572 748.001648,70.878212 749.690125,71.928528 
M603.284302,79.536827 
	C600.510498,71.255310 594.765503,67.194443 584.463806,67.037704 
	C574.986023,66.893509 565.497681,67.234161 556.020508,67.554054 
	C554.951294,67.590149 553.924316,68.877182 552.877747,69.584145 
	C553.773926,70.342522 554.688293,71.769836 555.563293,71.746040 
	C559.865845,71.629112 560.214661,74.061501 560.191040,77.500290 
	C560.073120,94.649971 560.144226,111.800926 560.125183,128.951401 
	C560.123413,130.548782 559.955994,132.145950 559.871826,133.630722 
	C551.979248,134.711288 551.979248,134.711288 552.800537,138.600677 
	C561.068298,138.600677 569.343140,138.600677 578.003052,138.600677 
	C577.707092,131.342911 571.345947,135.823395 568.571655,132.930237 
	C568.571655,124.716270 568.571655,116.019173 568.571655,107.018532 
	C570.768677,107.018532 572.636902,107.292427 574.395935,106.970284 
	C581.350952,105.696587 585.279358,109.205460 588.102661,115.008255 
	C590.793335,120.538490 593.703247,125.964592 596.609070,131.387024 
	C600.749207,139.112869 602.912354,140.202972 611.378906,138.779221 
	C612.259338,138.631149 613.587097,137.664749 613.645081,136.987045 
	C613.717407,136.143204 612.806335,134.540619 612.111572,134.414673 
	C607.484131,133.575882 605.842407,129.798508 603.776001,126.427101 
	C599.542053,119.519371 595.350525,112.585655 591.063171,105.533791 
	C601.357178,100.453316 605.433044,91.877655 603.284302,79.536827 
M621.107178,67.494171 
	C620.372864,68.329498 619.638550,69.164818 618.904236,70.000137 
	C619.731262,70.639404 620.470459,71.580612 621.404419,71.852272 
	C623.111633,72.348854 624.934021,72.449402 626.725098,72.717644 
	C626.725098,93.223808 626.725098,113.306213 626.725098,133.086319 
	C624.336792,135.412445 618.416626,131.926437 619.012024,138.736771 
	C631.062500,138.736771 642.922485,139.616928 654.591431,138.500320 
	C667.410583,137.273666 674.416687,129.678360 674.424438,118.239838 
	C674.427185,114.125381 672.677368,109.234245 670.047058,106.114151 
	C667.477417,103.066093 662.764587,101.824921 659.060913,99.827415 
	C659.071472,99.820084 659.571350,99.427635 660.113342,99.106255 
	C667.518433,94.715042 670.760437,87.607712 669.150024,79.268539 
	C667.834290,72.455254 662.749939,68.374054 653.929382,67.177162 
	C652.124512,66.932251 650.275269,66.913361 648.448975,66.943588 
	C639.633179,67.089470 630.818176,67.287766 621.107178,67.494171 
M718.464905,133.330719 
	C712.386047,133.330719 706.307190,133.330719 699.975952,133.330719 
	C699.975952,123.627274 699.975952,114.232780 699.975952,104.612755 
	C704.110107,104.612755 707.902466,104.842758 711.653625,104.548355 
	C715.437256,104.251396 717.794922,105.184372 717.784424,109.418182 
	C717.775146,113.136345 719.899719,113.226913 722.786377,112.494370 
	C722.786377,105.482483 722.786377,98.730339 722.786377,91.998207 
	C719.416870,90.684700 718.061035,91.743813 717.624817,95.074791 
	C717.428467,96.573677 716.117371,99.051804 715.146179,99.134377 
	C710.241394,99.551399 705.282043,99.326073 700.110535,99.326073 
	C700.110535,90.183441 700.110535,81.191620 700.110535,72.233734 
	C706.752197,72.233734 712.925293,72.606438 719.028809,72.114983 
	C723.850952,71.726707 726.166565,73.441109 726.748535,78.055321 
	C727.151306,81.249031 728.763489,82.401070 732.300781,80.749710 
	C731.855896,76.418282 731.407166,72.049194 730.930481,67.407913 
	C715.724243,67.407913 701.087280,67.371620 686.451538,67.488411 
	C685.460632,67.496315 684.478882,68.656815 683.492920,69.281258 
	C684.406128,70.183220 685.339783,71.877655 686.229065,71.854660 
	C690.939148,71.732834 691.496338,74.273705 691.457703,78.202599 
	C691.292175,95.015190 691.395752,111.830345 691.372925,128.644531 
	C691.370728,130.256485 691.172180,131.868164 691.052246,133.668381 
	C689.728943,133.827179 688.673035,133.736176 687.813416,134.103928 
	C686.200745,134.793839 684.701721,135.749115 683.155396,136.594040 
	C684.821899,137.362091 686.477600,138.766953 688.156738,138.795578 
	C699.640320,138.991440 711.128845,138.898499 722.615784,138.898529 
	C735.657471,138.898560 735.564697,138.882172 737.785767,126.273193 
	C738.425781,122.639900 737.243591,121.336617 733.451599,121.650108 
	C732.151184,124.795593 731.630615,128.967209 729.271790,130.931320 
	C726.968140,132.849609 722.787842,132.514206 718.464905,133.330719 
M534.884583,67.468971 
	C520.075867,67.468971 505.267120,67.468971 490.246826,67.468971 
	C489.222565,74.529648 495.806183,70.472862 497.577820,73.332619 
	C497.577820,93.274063 497.577820,113.488358 497.577820,133.645447 
	C489.795380,134.669525 489.795380,134.669525 490.693024,138.612564 
	C507.620605,138.612564 524.565430,138.612564 541.803162,138.612564 
	C542.587585,134.347076 543.128967,130.220596 544.146362,126.215065 
	C545.100159,122.460098 543.539734,121.457596 540.009827,121.627106 
	C538.785095,124.557320 537.719604,127.537735 536.285339,130.328613 
	C535.700989,131.465622 534.334290,132.959061 533.292786,132.983536 
	C524.356201,133.193573 515.412720,133.104111 506.179932,133.104111 
	C506.179932,123.785706 506.179932,114.230400 506.179932,104.567421 
	C510.605194,104.567421 514.731628,104.740646 518.835999,104.513985 
	C522.272095,104.324219 524.179871,105.195465 524.177979,109.067177 
	C524.176514,112.081856 525.604126,113.832901 529.562317,112.123291 
	C529.562317,106.732208 529.713257,101.097702 529.453613,95.482185 
	C529.390747,94.122162 527.973389,92.824753 527.178955,91.498543 
	C526.162476,92.718422 525.059326,93.877823 524.153503,95.174995 
	C523.227905,96.500641 522.585022,99.101517 521.664124,99.173607 
	C516.596924,99.570259 511.482483,99.363060 506.322754,99.363060 
	C506.322754,90.138725 506.322754,81.113838 506.322754,72.196381 
	C513.101501,72.196381 519.444092,72.495499 525.742126,72.094574 
	C530.177124,71.812256 532.593628,73.008408 533.114319,77.652161 
	C533.456848,80.707253 534.913757,82.712761 538.692017,80.789650 
	C538.477173,78.372040 538.480347,75.871590 537.973694,73.479103 
	C537.540405,71.433105 536.522400,69.510941 534.884583,67.468971 
M392.896118,130.392212 
	C392.153839,131.178436 391.420776,132.639221 390.667938,132.649460 
	C379.779419,132.797516 368.888275,132.750885 358.164734,132.750885 
	C358.034088,133.060989 358.146362,132.590439 358.401611,132.217834 
	C371.851593,112.586914 385.339355,92.981857 398.751526,73.325180 
	C401.280640,69.618553 399.846039,67.122070 395.287018,66.996208 
	C392.623810,66.922684 389.956940,66.981308 387.291718,66.981262 
	C376.000824,66.981071 364.709930,66.981186 353.229095,66.981186 
	C352.580109,72.244186 351.886078,77.001144 351.495178,81.782890 
	C351.417755,82.730278 352.504120,83.772812 353.053772,84.771461 
	C354.166260,84.109406 355.771454,83.710197 356.292847,82.732803 
	C357.534637,80.405045 358.038605,77.682007 359.292908,75.363304 
	C359.952423,74.144096 361.542175,72.657822 362.746460,72.626579 
	C371.634644,72.395988 380.531555,72.501823 389.749908,72.501823 
	C389.325989,73.131950 388.900146,73.774269 388.465057,74.410301 
	C375.308929,93.642815 362.136810,112.864410 349.008606,132.115982 
	C346.564880,135.699493 347.532837,138.744949 351.300995,138.782822 
	C367.104401,138.941803 382.910339,138.849930 399.251678,138.849930 
	C399.931396,132.796371 400.687897,127.055809 401.121094,121.290955 
	C401.200012,120.241158 399.958466,119.092140 399.326477,117.988953 
	C398.210541,118.848442 396.579224,119.480423 396.079651,120.612030 
	C394.810608,123.486572 394.048309,126.584831 392.896118,130.392212 
M323.489471,72.012138 
	C326.574951,72.012138 329.660431,72.012138 332.783325,72.012138 
	C333.612488,77.887901 334.506134,82.810989 334.943939,87.774292 
	C335.286926,91.662628 336.879150,92.685326 340.032654,91.396973 
	C340.032654,83.455452 340.032654,75.835564 340.032654,67.846085 
	C320.106201,67.846085 300.724854,67.846085 281.074005,67.846085 
	C280.560913,75.874023 280.065765,83.621086 279.537354,91.888512 
	C281.712006,91.725548 283.244812,91.610687 284.805298,91.493752 
	C285.649567,86.043060 286.293121,81.088188 287.252960,76.195374 
	C287.528534,74.790756 288.648407,72.487762 289.498932,72.433212 
	C294.886047,72.087631 300.306274,72.257751 305.677429,72.257751 
	C305.677429,92.925385 305.677429,113.183586 305.677429,133.699417 
	C302.440216,133.958176 299.452209,134.003952 296.550415,134.527573 
	C295.447906,134.726517 294.543701,136.024521 293.549103,136.821564 
	C294.633331,137.497925 295.708038,138.742981 296.803253,138.761246 
	C306.133728,138.916916 315.468414,138.793640 324.800659,138.880768 
	C327.920349,138.909882 328.647430,137.675034 327.403900,134.682281 
	C324.669830,134.469864 321.838531,133.921387 319.057739,134.111526 
	C314.973907,134.390747 314.049835,132.673065 314.104797,128.872009 
	C314.304840,115.041946 314.183533,101.207230 314.183411,87.374268 
	C314.183380,82.414055 314.183380,77.453835 314.183380,72.011719 
	C317.313629,72.011719 319.919769,72.011719 323.489471,72.012138 
M835.815491,89.501732 
	C835.815491,104.103844 835.815491,118.705956 835.815491,133.634201 
	C832.138550,133.940704 829.008484,134.046265 825.942627,134.546051 
	C824.942688,134.709076 824.110229,135.899719 823.201172,136.620377 
	C824.218628,137.363068 825.225159,138.732712 826.255310,138.750732 
	C835.741577,138.916595 845.233093,138.916473 854.719482,138.751953 
	C855.758667,138.733932 856.774780,137.379730 857.801575,136.645264 
	C856.732788,135.909286 855.734985,134.699570 854.581787,134.526657 
	C851.197388,134.019196 847.751099,133.923904 844.261292,133.662109 
	C844.261292,112.915215 844.261292,92.672974 844.261292,72.218315 
	C849.774414,72.218315 855.053772,72.049774 860.302979,72.371986 
	C861.260376,72.430748 862.629517,74.382072 862.888489,75.647972 
	C863.753601,79.876770 864.403870,84.174820 864.747925,88.477402 
	C865.052551,92.287933 867.023682,92.146019 869.328003,91.543449 
	C869.328003,83.389641 869.328003,75.651718 869.328003,67.704865 
	C849.525146,67.704865 830.443115,67.704865 810.732544,67.704865 
	C810.196533,75.745125 809.673706,83.588013 809.160339,91.288940 
	C813.044006,92.515091 814.741394,91.648430 815.072571,87.950462 
	C815.457397,83.654045 816.257690,79.383171 817.112793,75.148735 
	C817.327026,74.087830 818.406738,72.407181 819.148743,72.374466 
	C824.552429,72.136169 829.971558,72.246246 835.815430,72.246246 
	C835.815430,77.909431 835.815430,83.206070 835.815491,89.501732 
M190.830338,138.864944 
	C199.127670,138.864944 207.425003,138.864944 215.722336,138.864944 
	C216.012848,138.346985 216.303360,137.829025 216.593872,137.311066 
	C215.480164,136.359528 214.477509,134.807526 213.230469,134.576889 
	C210.308487,134.036514 207.238647,134.325760 204.293625,133.864395 
	C203.182571,133.690338 201.389557,132.393524 201.369583,131.572922 
	C201.156433,122.816368 201.237137,114.052673 201.237137,105.140251 
	C206.111023,105.140251 210.281174,105.389587 214.407623,105.071663 
	C218.721405,104.739288 221.421677,105.711571 221.656921,110.645180 
	C221.704147,111.635323 223.320114,112.550659 224.212769,113.500481 
	C224.993652,112.330513 226.379120,111.195053 226.448227,109.984459 
	C226.713593,105.334991 226.701141,100.654106 226.465118,96.001556 
	C226.399002,94.698730 225.210648,93.452835 224.537094,92.180824 
	C223.464645,93.335785 222.276230,94.405846 221.351639,95.669014 
	C220.380936,96.995125 219.741440,99.683212 218.821869,99.744469 
	C213.098755,100.125671 207.337646,99.936562 201.614166,99.936562 
	C201.614166,90.283463 201.614166,81.237556 201.614166,72.189705 
	C208.349152,72.189705 214.704422,72.630287 220.967850,72.060753 
	C226.760117,71.534050 229.675415,73.333008 230.012543,79.252571 
	C230.223007,82.948364 232.329025,84.005875 236.190796,82.533524 
	C235.884949,77.643730 235.578583,72.745697 235.266434,67.755402 
	C218.194061,67.755402 201.784348,67.755402 185.225266,67.755402 
	C184.372620,74.752480 191.069046,70.257416 192.695023,73.380676 
	C192.695023,93.320251 192.695023,113.529419 192.695023,132.130539 
	C189.624863,134.209106 187.584366,135.590591 185.543869,136.972061 
	C187.005402,137.602921 188.466949,138.233795 190.830338,138.864944 
M254.797653,96.500008 
	C254.797653,108.778206 254.797653,121.056404 254.797653,133.550797 
	C251.964233,133.892456 249.629898,133.946609 247.445190,134.546143 
	C246.535614,134.795746 245.945023,136.207687 245.209381,137.091095 
	C246.038712,137.678513 246.859970,138.762512 247.698624,138.776138 
	C255.662247,138.905624 263.628815,138.853333 272.007935,138.853333 
	C271.828735,131.870071 265.781647,135.552170 263.126892,133.091141 
	C263.126892,113.245239 263.126892,93.166557 263.126892,73.717308 
	C265.378815,70.226952 272.042999,74.783875 271.937714,67.438286 
	C264.284546,67.438286 256.986237,67.337791 249.695023,67.520653 
	C248.185165,67.558510 246.701721,68.649261 245.206100,69.254753 
	C246.633270,70.177094 248.065338,71.885208 249.486725,71.876373 
	C253.990143,71.848412 255.125580,73.828812 254.882233,78.020622 
	C254.545013,83.829155 254.797577,89.671928 254.797653,96.500008 
z"/>
<path fill="#FFFEFE" opacity="1.000000" stroke="none" 
	d="
M160.311295,171.215881 
	C160.174835,173.537903 160.038376,175.859924 159.878143,178.586639 
	C109.505669,178.586639 59.148754,178.586639 8.447444,178.586639 
	C8.447444,128.239441 8.447444,77.867584 8.447444,26.945234 
	C10.749030,26.945234 12.870953,26.945234 15.903028,26.932320 
	C62.462231,26.940889 108.111580,27.042019 153.759903,26.871387 
	C158.808258,26.852518 160.217712,28.208921 160.193176,33.279991 
	C159.993225,74.596703 160.073593,115.914810 160.091141,157.232498 
	C160.093124,161.893661 160.234528,166.554749 160.311295,171.215881 
M92.916641,91.280930 
	C92.930786,87.120430 93.193604,82.942917 92.910400,78.802757 
	C92.186989,68.227089 90.207428,57.937183 83.423622,49.357227 
	C81.061523,46.369728 77.948357,43.976070 75.178207,41.311199 
	C74.452667,45.102390 74.837395,48.034191 74.976379,50.977600 
	C75.817833,68.797211 69.879524,84.619736 60.592743,99.444252 
	C54.228901,109.602882 51.219807,120.561035 51.937031,132.649109 
	C52.806404,147.301529 65.214684,162.158051 78.785431,164.204132 
	C95.172745,166.674881 111.247086,155.550278 114.894608,138.408432 
	C118.581688,121.080650 115.256508,104.705261 106.077690,89.570793 
	C105.050964,87.877892 103.434357,86.542740 101.157913,83.998474 
	C101.373070,87.368225 101.658478,89.158386 101.570969,90.930138 
	C101.186569,98.712997 101.028145,106.534088 100.022530,114.241463 
	C99.747841,116.346840 96.883080,119.620590 95.080475,119.706573 
	C91.333908,119.885277 90.711357,116.216454 90.946716,113.082085 
	C91.469368,106.121788 92.214996,99.178246 92.916641,91.280930 
z"/>
<path fill="#FFA8A8" opacity="1.000000" stroke="none" 
	d="
M160.735840,171.236786 
	C160.234528,166.554749 160.093124,161.893661 160.091141,157.232498 
	C160.073593,115.914810 159.993225,74.596703 160.193176,33.279991 
	C160.217712,28.208921 158.808258,26.852518 153.759903,26.871387 
	C108.111580,27.042019 62.462231,26.940889 16.337841,26.869244 
	C15.897239,19.223145 15.897239,19.216732 23.453909,19.216393 
	C69.415230,19.214327 115.376556,19.212801 161.337875,19.218428 
	C167.857651,19.219227 167.871933,19.237701 167.872559,25.840679 
	C167.876892,71.968529 167.876816,118.096375 167.872742,164.224228 
	C167.872131,171.104263 167.859009,171.104263 160.735840,171.236786 
z"/>
<path fill="#FFF9F9" opacity="1.000000" stroke="none" 
	d="
M412.607422,134.497665 
	C414.816132,134.166275 416.609070,133.940826 418.680298,133.680389 
	C418.680298,113.423584 418.680298,93.326714 418.680298,72.682487 
	C417.029694,72.431656 415.184509,72.409897 413.555450,71.805519 
	C412.597198,71.449982 411.982239,70.169060 411.212891,69.304352 
	C412.033356,68.699814 412.843597,67.587448 413.675934,67.570679 
	C420.650787,67.430153 427.629669,67.490761 434.565674,67.490761 
	C434.842133,70.862526 434.842133,70.862526 427.286682,73.046974 
	C427.286682,81.546608 427.286682,90.126801 427.286682,99.084656 
	C439.337555,99.084656 451.224274,99.084656 463.764801,99.084656 
	C463.764801,90.815300 463.913727,82.697266 463.561249,74.601059 
	C463.520844,73.672882 460.623596,72.950844 459.153107,71.978783 
	C457.837433,71.109070 456.662811,70.026039 455.425964,69.037117 
	C455.745941,68.517189 456.065918,67.997269 456.385895,67.477341 
	C463.195190,67.477341 470.006561,67.398018 476.811371,67.572975 
	C477.710022,67.596077 478.575317,68.916161 479.456085,69.635551 
	C478.580566,70.405624 477.666992,71.875977 476.835846,71.830765 
	C471.888550,71.561638 471.779053,74.500656 471.803467,78.225464 
	C471.923370,96.533295 471.857941,114.842346 471.857941,133.548813 
	C473.712006,133.817139 475.381012,133.811417 476.845917,134.355392 
	C477.866302,134.734299 478.606628,135.867371 479.472076,136.663544 
	C478.603577,137.391891 477.752258,138.726257 476.863861,138.751465 
	C470.538025,138.930832 464.202972,138.910355 457.875763,138.754395 
	C457.085022,138.734894 455.743378,137.584274 455.701599,136.894516 
	C455.654602,136.118347 456.645325,134.795303 457.443237,134.549408 
	C459.296875,133.978195 461.306061,133.911667 463.514587,133.604019 
	C463.514587,124.149490 463.514587,114.894989 463.514587,105.248108 
	C451.499390,105.248108 439.607788,105.248108 427.363342,105.248108 
	C427.363342,114.594368 427.363342,123.982811 427.363342,133.648590 
	C429.409332,133.906570 431.432739,133.901779 433.257507,134.501450 
	C434.170166,134.801407 434.720245,136.204727 435.434326,137.108994 
	C434.595886,137.688278 433.766602,138.754272 432.917480,138.770279 
	C425.782806,138.904770 418.644501,138.846863 410.589111,138.846863 
	C411.295471,136.976562 411.743591,135.790100 412.607422,134.497665 
z"/>
<path fill="#FFF8F8" opacity="1.000000" stroke="none" 
	d="
M749.285645,71.876694 
	C748.001648,70.878212 747.122192,69.931572 746.242676,68.984940 
	C747.321777,68.477013 748.387756,67.560974 749.482117,67.525551 
	C758.463196,67.234894 767.449707,66.955956 776.434143,66.970093 
	C787.645203,66.987732 794.899231,71.558319 796.872253,79.465256 
	C799.529541,90.114487 795.180054,99.718887 785.321899,104.990494 
	C784.924438,105.203011 784.568787,105.493622 784.509521,105.533791 
	C788.660645,112.291588 792.732422,118.907326 796.790466,125.531570 
	C799.024170,129.177841 800.662292,133.296875 805.590515,134.459290 
	C806.414246,134.653595 806.767822,136.840881 807.436401,138.324127 
	C795.127441,139.958527 794.376770,139.604843 789.265930,129.871445 
	C786.637817,124.866440 784.056580,119.836273 781.506042,114.791245 
	C778.738953,109.317963 775.057068,105.583565 768.199890,106.965919 
	C766.448547,107.318985 764.565552,107.018890 762.303345,107.018890 
	C762.303345,115.911240 762.303345,124.597801 762.303345,133.649826 
	C764.440796,133.872055 766.604492,133.864426 768.626465,134.396072 
	C769.804749,134.705902 770.755981,135.879196 771.809387,136.663986 
	C770.611450,137.396042 769.432800,138.721436 768.212402,138.761017 
	C761.725647,138.971405 755.225708,138.954651 748.737610,138.765671 
	C747.650024,138.733978 746.598267,137.472168 745.529968,136.778748 
	C746.522583,135.935577 747.392517,134.772064 748.539795,134.332718 
	C749.884521,133.817703 751.470581,133.932800 753.421997,133.724411 
	C753.552307,132.265228 753.788025,130.841690 753.790100,129.417831 
	C753.815613,111.935127 753.755310,94.452065 753.855408,76.969887 
	C753.873169,73.874733 753.468140,71.644196 749.285645,71.876694 
M788.375854,91.460724 
	C791.798767,75.130951 780.923645,68.097633 762.254395,72.694649 
	C762.254395,82.415001 762.254395,92.113228 762.254395,102.143539 
	C766.610229,102.143539 770.575439,102.173035 774.540039,102.137215 
	C782.064819,102.069221 785.555481,99.523674 788.375854,91.460724 
z"/>
<path fill="#FFF8F8" opacity="1.000000" stroke="none" 
	d="
M603.413696,79.935097 
	C605.433044,91.877655 601.357178,100.453316 591.063171,105.533791 
	C595.350525,112.585655 599.542053,119.519371 603.776001,126.427101 
	C605.842407,129.798508 607.484131,133.575882 612.111572,134.414673 
	C612.806335,134.540619 613.717407,136.143204 613.645081,136.987045 
	C613.587097,137.664749 612.259338,138.631149 611.378906,138.779221 
	C602.912354,140.202972 600.749207,139.112869 596.609070,131.387024 
	C593.703247,125.964592 590.793335,120.538490 588.102661,115.008255 
	C585.279358,109.205460 581.350952,105.696587 574.395935,106.970284 
	C572.636902,107.292427 570.768677,107.018532 568.571655,107.018532 
	C568.571655,116.019173 568.571655,124.716270 568.571655,132.930237 
	C571.345947,135.823395 577.707092,131.342911 578.003052,138.600677 
	C569.343140,138.600677 561.068298,138.600677 552.800537,138.600677 
	C551.979248,134.711288 551.979248,134.711288 559.871826,133.630722 
	C559.955994,132.145950 560.123413,130.548782 560.125183,128.951401 
	C560.144226,111.800926 560.073120,94.649971 560.191040,77.500290 
	C560.214661,74.061501 559.865845,71.629112 555.563293,71.746040 
	C554.688293,71.769836 553.773926,70.342522 552.877747,69.584137 
	C553.924316,68.877182 554.951294,67.590149 556.020508,67.554054 
	C565.497681,67.234161 574.986023,66.893509 584.463806,67.037704 
	C594.765503,67.194443 600.510498,71.255310 603.413696,79.935097 
M568.220032,73.940529 
	C568.220032,83.191994 568.220032,92.443451 568.220032,102.137169 
	C573.485840,102.137169 578.113953,102.263451 582.732361,102.105461 
	C588.619324,101.904091 593.071960,98.220474 594.675598,92.530640 
	C596.853760,84.802422 595.072327,76.839684 589.770874,74.090347 
	C582.944885,70.550407 575.647034,70.136581 568.220032,73.940529 
z"/>
<path fill="#FFF9F9" opacity="1.000000" stroke="none" 
	d="
M621.555054,67.480820 
	C630.818176,67.287766 639.633179,67.089470 648.448975,66.943588 
	C650.275269,66.913361 652.124512,66.932251 653.929382,67.177162 
	C662.749939,68.374054 667.834290,72.455254 669.150024,79.268539 
	C670.760437,87.607712 667.518433,94.715042 660.113342,99.106255 
	C659.571350,99.427635 659.071472,99.820084 659.060913,99.827415 
	C662.764587,101.824921 667.477417,103.066093 670.047058,106.114151 
	C672.677368,109.234245 674.427185,114.125381 674.424438,118.239838 
	C674.416687,129.678360 667.410583,137.273666 654.591431,138.500320 
	C642.922485,139.616928 631.062500,138.736771 619.012024,138.736771 
	C618.416626,131.926437 624.336792,135.412445 626.725098,133.086319 
	C626.725098,113.306213 626.725098,93.223808 626.725098,72.717644 
	C624.934021,72.449402 623.111633,72.348854 621.404419,71.852272 
	C620.470459,71.580612 619.731262,70.639404 618.904236,70.000137 
	C619.638550,69.164818 620.372864,68.329498 621.555054,67.480820 
M641.787292,134.808533 
	C646.708679,134.236435 651.805420,134.282074 656.510315,132.946960 
	C663.509338,130.960815 666.668030,124.845581 665.909363,116.813469 
	C665.226135,109.580620 661.922546,105.703049 654.252258,104.901909 
	C648.064209,104.255569 641.754822,104.770966 635.187622,104.770966 
	C635.187622,114.415306 635.187622,124.108276 635.187622,133.957031 
	C637.295349,134.252548 639.094604,134.504807 641.787292,134.808533 
M641.521484,99.148003 
	C644.347046,99.073013 647.200500,99.224075 649.992676,98.878906 
	C657.173523,97.991173 661.170471,93.207642 661.440857,85.516441 
	C661.735352,77.139252 658.846130,72.845818 651.054749,71.803757 
	C645.898621,71.114136 640.575562,71.673119 635.251587,71.673119 
	C635.251587,81.026840 635.251587,89.897995 635.251587,99.147911 
	C637.284058,99.147911 638.923828,99.147911 641.521484,99.148003 
z"/>
<path fill="#FFEFEF" opacity="1.000000" stroke="none" 
	d="
M718.948120,133.249435 
	C722.787842,132.514206 726.968140,132.849609 729.271790,130.931320 
	C731.630615,128.967209 732.151184,124.795593 733.451599,121.650108 
	C737.243591,121.336617 738.425781,122.639900 737.785767,126.273193 
	C735.564697,138.882172 735.657471,138.898560 722.615784,138.898529 
	C711.128845,138.898499 699.640320,138.991440 688.156738,138.795578 
	C686.477600,138.766953 684.821899,137.362091 683.155396,136.594025 
	C684.701721,135.749115 686.200745,134.793839 687.813416,134.103928 
	C688.673035,133.736176 689.728943,133.827179 691.052246,133.668381 
	C691.172180,131.868164 691.370728,130.256485 691.372925,128.644531 
	C691.395752,111.830345 691.292175,95.015190 691.457703,78.202599 
	C691.496338,74.273705 690.939148,71.732834 686.229065,71.854660 
	C685.339783,71.877655 684.406128,70.183220 683.492920,69.281265 
	C684.478882,68.656815 685.460632,67.496315 686.451538,67.488411 
	C701.087280,67.371620 715.724243,67.407913 730.930481,67.407913 
	C731.407166,72.049194 731.855896,76.418282 732.300781,80.749710 
	C728.763489,82.401070 727.151306,81.249031 726.748535,78.055321 
	C726.166565,73.441109 723.850952,71.726707 719.028809,72.114983 
	C712.925293,72.606438 706.752197,72.233734 700.110535,72.233734 
	C700.110535,81.191620 700.110535,90.183441 700.110535,99.326073 
	C705.282043,99.326073 710.241394,99.551399 715.146179,99.134377 
	C716.117371,99.051804 717.428467,96.573677 717.624817,95.074791 
	C718.061035,91.743813 719.416870,90.684700 722.786377,91.998207 
	C722.786377,98.730339 722.786377,105.482483 722.786377,112.494370 
	C719.899719,113.226913 717.775146,113.136345 717.784424,109.418182 
	C717.794922,105.184372 715.437256,104.251396 711.653625,104.548355 
	C707.902466,104.842758 704.110107,104.612755 699.975952,104.612755 
	C699.975952,114.232780 699.975952,123.627274 699.975952,133.330719 
	C706.307190,133.330719 712.386047,133.330719 718.948120,133.249435 
z"/>
<path fill="#FFF7F7" opacity="1.000000" stroke="none" 
	d="
M535.323792,67.501488 
	C536.522400,69.510941 537.540405,71.433105 537.973694,73.479103 
	C538.480347,75.871590 538.477173,78.372040 538.692017,80.789650 
	C534.913757,82.712761 533.456848,80.707253 533.114319,77.652161 
	C532.593628,73.008408 530.177124,71.812256 525.742126,72.094574 
	C519.444092,72.495499 513.101501,72.196381 506.322754,72.196381 
	C506.322754,81.113838 506.322754,90.138725 506.322754,99.363060 
	C511.482483,99.363060 516.596924,99.570259 521.664124,99.173607 
	C522.585022,99.101517 523.227905,96.500641 524.153503,95.174995 
	C525.059326,93.877823 526.162476,92.718422 527.178955,91.498550 
	C527.973389,92.824753 529.390747,94.122162 529.453613,95.482185 
	C529.713257,101.097702 529.562317,106.732208 529.562317,112.123291 
	C525.604126,113.832901 524.176514,112.081856 524.177979,109.067177 
	C524.179871,105.195465 522.272095,104.324219 518.835999,104.513985 
	C514.731628,104.740646 510.605194,104.567421 506.179932,104.567421 
	C506.179932,114.230400 506.179932,123.785706 506.179932,133.104111 
	C515.412720,133.104111 524.356201,133.193573 533.292786,132.983536 
	C534.334290,132.959061 535.700989,131.465622 536.285339,130.328613 
	C537.719604,127.537735 538.785095,124.557320 540.009827,121.627106 
	C543.539734,121.457596 545.100159,122.460098 544.146362,126.215065 
	C543.128967,130.220596 542.587585,134.347076 541.803162,138.612564 
	C524.565430,138.612564 507.620605,138.612564 490.693024,138.612564 
	C489.795380,134.669525 489.795380,134.669525 497.577820,133.645447 
	C497.577820,113.488358 497.577820,93.274063 497.577820,73.332619 
	C495.806183,70.472862 489.222565,74.529648 490.246826,67.468971 
	C505.267120,67.468971 520.075867,67.468971 535.323792,67.501488 
z"/>
<path fill="#FFF8F8" opacity="1.000000" stroke="none" 
	d="
M392.989624,129.992874 
	C394.048309,126.584831 394.810608,123.486572 396.079651,120.612030 
	C396.579224,119.480423 398.210541,118.848442 399.326477,117.988937 
	C399.958466,119.092140 401.200012,120.241158 401.121094,121.290955 
	C400.687897,127.055809 399.931396,132.796371 399.251678,138.849930 
	C382.910339,138.849930 367.104401,138.941803 351.300995,138.782822 
	C347.532837,138.744949 346.564880,135.699493 349.008606,132.115982 
	C362.136810,112.864410 375.308929,93.642815 388.465057,74.410301 
	C388.900146,73.774269 389.325989,73.131950 389.749908,72.501823 
	C380.531555,72.501823 371.634644,72.395988 362.746460,72.626579 
	C361.542175,72.657822 359.952423,74.144096 359.292908,75.363304 
	C358.038605,77.682007 357.534637,80.405045 356.292847,82.732803 
	C355.771454,83.710197 354.166260,84.109406 353.053772,84.771469 
	C352.504120,83.772812 351.417755,82.730278 351.495178,81.782890 
	C351.886078,77.001144 352.580109,72.244186 353.229095,66.981186 
	C364.709930,66.981186 376.000824,66.981071 387.291718,66.981262 
	C389.956940,66.981308 392.623810,66.922684 395.287018,66.996208 
	C399.846039,67.122070 401.280640,69.618553 398.751526,73.325180 
	C385.339355,92.981857 371.851593,112.586914 358.401611,132.217834 
	C358.146362,132.590439 358.034088,133.060989 358.164734,132.750885 
	C368.888275,132.750885 379.779419,132.797516 390.667938,132.649460 
	C391.420776,132.639221 392.153839,131.178436 392.989624,129.992874 
z"/>
<path fill="#FFFAFA" opacity="1.000000" stroke="none" 
	d="
M323.007690,72.011932 
	C319.919769,72.011719 317.313629,72.011719 314.183380,72.011719 
	C314.183380,77.453835 314.183380,82.414055 314.183411,87.374268 
	C314.183533,101.207230 314.304840,115.041946 314.104797,128.872009 
	C314.049835,132.673065 314.973907,134.390747 319.057739,134.111526 
	C321.838531,133.921387 324.669830,134.469864 327.403900,134.682281 
	C328.647430,137.675034 327.920349,138.909882 324.800659,138.880768 
	C315.468414,138.793640 306.133728,138.916916 296.803253,138.761246 
	C295.708038,138.742981 294.633331,137.497925 293.549103,136.821564 
	C294.543701,136.024521 295.447906,134.726517 296.550415,134.527573 
	C299.452209,134.003952 302.440216,133.958176 305.677429,133.699417 
	C305.677429,113.183586 305.677429,92.925385 305.677429,72.257751 
	C300.306274,72.257751 294.886047,72.087631 289.498932,72.433212 
	C288.648407,72.487762 287.528534,74.790756 287.252960,76.195374 
	C286.293121,81.088188 285.649567,86.043060 284.805298,91.493752 
	C283.244812,91.610687 281.712006,91.725548 279.537354,91.888512 
	C280.065765,83.621086 280.560913,75.874023 281.074005,67.846085 
	C300.724854,67.846085 320.106201,67.846085 340.032654,67.846085 
	C340.032654,75.835564 340.032654,83.455452 340.032654,91.396973 
	C336.879150,92.685326 335.286926,91.662628 334.943939,87.774292 
	C334.506134,82.810989 333.612488,77.887901 332.783325,72.012138 
	C329.660431,72.012138 326.574951,72.012138 323.007690,72.011932 
z"/>
<path fill="#FFFAFA" opacity="1.000000" stroke="none" 
	d="
M835.815430,89.002228 
	C835.815430,83.206070 835.815430,77.909431 835.815430,72.246246 
	C829.971558,72.246246 824.552429,72.136169 819.148743,72.374466 
	C818.406738,72.407181 817.327026,74.087830 817.112793,75.148735 
	C816.257690,79.383171 815.457397,83.654045 815.072571,87.950462 
	C814.741394,91.648430 813.044006,92.515091 809.160339,91.288940 
	C809.673706,83.588013 810.196533,75.745125 810.732544,67.704865 
	C830.443115,67.704865 849.525146,67.704865 869.328003,67.704865 
	C869.328003,75.651718 869.328003,83.389641 869.328003,91.543449 
	C867.023682,92.146019 865.052551,92.287933 864.747925,88.477402 
	C864.403870,84.174820 863.753601,79.876770 862.888489,75.647972 
	C862.629517,74.382072 861.260376,72.430748 860.302979,72.371986 
	C855.053772,72.049774 849.774414,72.218315 844.261292,72.218315 
	C844.261292,92.672974 844.261292,112.915215 844.261292,133.662109 
	C847.751099,133.923904 851.197388,134.019196 854.581787,134.526657 
	C855.734985,134.699570 856.732788,135.909286 857.801575,136.645264 
	C856.774780,137.379730 855.758667,138.733932 854.719482,138.751953 
	C845.233093,138.916473 835.741577,138.916595 826.255310,138.750732 
	C825.225159,138.732712 824.218628,137.363068 823.201172,136.620392 
	C824.110229,135.899719 824.942688,134.709076 825.942627,134.546051 
	C829.008484,134.046265 832.138550,133.940704 835.815491,133.634201 
	C835.815491,118.705956 835.815491,104.103844 835.815430,89.002228 
z"/>
<path fill="#FFF8F8" opacity="1.000000" stroke="none" 
	d="
M190.379410,138.864807 
	C188.466949,138.233795 187.005402,137.602921 185.543869,136.972061 
	C187.584366,135.590591 189.624863,134.209106 192.695023,132.130539 
	C192.695023,113.529419 192.695023,93.320251 192.695023,73.380676 
	C191.069046,70.257416 184.372620,74.752480 185.225266,67.755402 
	C201.784348,67.755402 218.194061,67.755402 235.266434,67.755402 
	C235.578583,72.745697 235.884949,77.643730 236.190796,82.533524 
	C232.329025,84.005875 230.223007,82.948364 230.012543,79.252571 
	C229.675415,73.333008 226.760117,71.534050 220.967850,72.060753 
	C214.704422,72.630287 208.349152,72.189705 201.614166,72.189705 
	C201.614166,81.237556 201.614166,90.283463 201.614166,99.936562 
	C207.337646,99.936562 213.098755,100.125671 218.821869,99.744469 
	C219.741440,99.683212 220.380936,96.995125 221.351639,95.669014 
	C222.276230,94.405846 223.464645,93.335785 224.537079,92.180832 
	C225.210648,93.452835 226.399002,94.698730 226.465118,96.001556 
	C226.701141,100.654106 226.713593,105.334991 226.448227,109.984459 
	C226.379120,111.195053 224.993652,112.330513 224.212769,113.500488 
	C223.320114,112.550659 221.704147,111.635323 221.656921,110.645180 
	C221.421677,105.711571 218.721405,104.739288 214.407623,105.071663 
	C210.281174,105.389587 206.111023,105.140251 201.237137,105.140251 
	C201.237137,114.052673 201.156433,122.816368 201.369583,131.572922 
	C201.389557,132.393524 203.182571,133.690338 204.293625,133.864395 
	C207.238647,134.325760 210.308487,134.036514 213.230469,134.576889 
	C214.477509,134.807526 215.480164,136.359528 216.593872,137.311066 
	C216.303360,137.829025 216.012848,138.346985 215.722336,138.864944 
	C207.425003,138.864944 199.127670,138.864944 190.379410,138.864807 
z"/>
<path fill="#FFF6F6" opacity="1.000000" stroke="none" 
	d="
M254.797638,96.000031 
	C254.797577,89.671928 254.545013,83.829155 254.882233,78.020622 
	C255.125580,73.828812 253.990143,71.848412 249.486725,71.876373 
	C248.065338,71.885208 246.633270,70.177094 245.206100,69.254753 
	C246.701721,68.649261 248.185165,67.558510 249.695023,67.520653 
	C256.986237,67.337791 264.284546,67.438286 271.937714,67.438286 
	C272.042999,74.783875 265.378815,70.226952 263.126892,73.717308 
	C263.126892,93.166557 263.126892,113.245239 263.126892,133.091141 
	C265.781647,135.552170 271.828735,131.870071 272.007935,138.853333 
	C263.628815,138.853333 255.662247,138.905624 247.698624,138.776138 
	C246.859970,138.762512 246.038712,137.678513 245.209381,137.091095 
	C245.945023,136.207687 246.535614,134.795746 247.445190,134.546143 
	C249.629898,133.946609 251.964233,133.892456 254.797653,133.550797 
	C254.797653,121.056404 254.797653,108.778206 254.797638,96.000031 
z"/>
<path fill="#FF5959" opacity="1.000000" stroke="none" 
	d="
M92.893181,91.754395 
	C92.214996,99.178246 91.469368,106.121788 90.946716,113.082085 
	C90.711357,116.216454 91.333908,119.885277 95.080475,119.706573 
	C96.883080,119.620590 99.747841,116.346840 100.022530,114.241463 
	C101.028145,106.534088 101.186569,98.712997 101.570969,90.930138 
	C101.658478,89.158386 101.373070,87.368225 101.157913,83.998474 
	C103.434357,86.542740 105.050964,87.877892 106.077690,89.570793 
	C115.256508,104.705261 118.581688,121.080650 114.894608,138.408432 
	C111.247086,155.550278 95.172745,166.674881 78.785431,164.204132 
	C65.214684,162.158051 52.806404,147.301529 51.937031,132.649109 
	C51.219807,120.561035 54.228901,109.602882 60.592743,99.444252 
	C69.879524,84.619736 75.817833,68.797211 74.976379,50.977600 
	C74.837395,48.034191 74.452667,45.102390 75.178207,41.311199 
	C77.948357,43.976070 81.061523,46.369728 83.423622,49.357227 
	C90.207428,57.937183 92.186989,68.227089 92.910400,78.802757 
	C93.193604,82.942917 92.930786,87.120430 92.893181,91.754395 
z"/>
<path fill="#FF5959" opacity="1.000000" stroke="none" 
	d="
M788.278992,91.858536 
	C785.555481,99.523674 782.064819,102.069221 774.540039,102.137215 
	C770.575439,102.173035 766.610229,102.143539 762.254395,102.143539 
	C762.254395,92.113228 762.254395,82.415001 762.254395,72.694649 
	C780.923645,68.097633 791.798767,75.130951 788.278992,91.858536 
z"/>
<path fill="#FF5B5B" opacity="1.000000" stroke="none" 
	d="
M568.282471,73.488831 
	C575.647034,70.136581 582.944885,70.550407 589.770874,74.090347 
	C595.072327,76.839684 596.853760,84.802422 594.675598,92.530640 
	C593.071960,98.220474 588.619324,101.904091 582.732361,102.105461 
	C578.113953,102.263451 573.485840,102.137169 568.220032,102.137169 
	C568.220032,92.443451 568.220032,83.191994 568.282471,73.488831 
z"/>
<path fill="#FF5B5B" opacity="1.000000" stroke="none" 
	d="
M641.340576,134.782806 
	C639.094604,134.504807 637.295349,134.252548 635.187622,133.957031 
	C635.187622,124.108276 635.187622,114.415306 635.187622,104.770966 
	C641.754822,104.770966 648.064209,104.255569 654.252258,104.901909 
	C661.922546,105.703049 665.226135,109.580620 665.909363,116.813469 
	C666.668030,124.845581 663.509338,130.960815 656.510315,132.946960 
	C651.805420,134.282074 646.708679,134.236435 641.340576,134.782806 
z"/>
<path fill="#FF5959" opacity="1.000000" stroke="none" 
	d="
M641.042542,99.147957 
	C638.923828,99.147911 637.284058,99.147911 635.251587,99.147911 
	C635.251587,89.897995 635.251587,81.026840 635.251587,71.673119 
	C640.575562,71.673119 645.898621,71.114136 651.054749,71.803757 
	C658.846130,72.845818 661.735352,77.139252 661.440857,85.516441 
	C661.170471,93.207642 657.173523,97.991173 649.992676,98.878906 
	C647.200500,99.224075 644.347046,99.073013 641.042542,99.147957 
z"/>
</svg>